# xmcd
#
# Track frame offsets:
#	150
#	14986
#	27489
#	40411
#	56186
#	64461
#	79730
#	94455
#	111656
#	127719
#	145563
#
# Disc length: 2218 seconds
#
# Revision: 0
# Processed by: cddbd v1.5.2PL0 Copyright (c) Steve Scherf et al.
# Submitted via: EasyCDDAExtractor 15.3.0.1
#
DISCID=a608a80b
DTITLE=Terry Bethel - If We Could
DYEAR=1900
DGENRE=Steelguitar
TTITLE0=Drivin' Nails
TTITLE1=If
TTITLE2=Don't You Ever Get Tired Of Hurting Me
TTITLE3=We Could
TTITLE4=Fireball Mail
TTITLE5=I'm So Lonesome I Could Cry
TTITLE6=Paper Cups
TTITLE7=Sweet Dreams - Sleepwalk
TTITLE8=Patricia Ann
TTITLE9=I'm Always Chasing Rainbows
TTITLE10=Somewhere Over The Rainbow
EXTD=
EXTT0=
EXTT1=
EXTT2=
EXTT3=
EXTT4=
EXTT5=
EXTT6=
EXTT7=
EXTT8=
EXTT9=
EXTT10=
PLAYORDER=
